<?xml version="1.0" encoding="utf-8"?>
<svg xmlns="http://www.w3.org/2000/svg" viewBox="0 0 500 500">
  <path d="M 58.396 275.765 L 44.986 321.999 L 58.341 364.524 L 105.392 378.799 L 157.373 364.481 L 169.515 321.988 L 157.325 275.806 L 105.392 261.51 L 58.396 275.765 Z M 118.433 160.06 L 262.977 283.988 L 336.854 342.22 L 405.958 375.001 L 369.854 301.568 L 239.378 188.82 L 239.318 188.766 L 158.332 115.47 L 91.651 90.428 L 118.433 160.06 Z M 338.033 87.499 L 331.077 129.563 L 338.07 172.008 L 383.99 182.631 L 433.82 171.917 L 444.377 129.579 L 433.857 87.555 L 383.995 80.27 L 338.033 87.499 Z M 492.855 378.52 L 491.9 379.522 L 437.082 437.631 L 436.062 438.725 L 306.228 438.725 L 305.524 438.397 L 250.646 412.686 L 198.919 438.366 L 198.185 438.725 L 63.05 438.725 L 62.023 437.631 L 7.204 379.522 L 6.257 378.52 L 6.257 95.747 L 7.204 94.752 L 62.023 36.636 L 63.05 35.542 L 187.434 35.542 L 187.992 35.75 L 250.529 57.949 L 305.706 35.798 L 306.332 35.542 L 436.062 35.542 L 437.082 36.636 L 491.9 94.752 L 492.855 95.747 L 492.855 378.52 Z" style="stroke: rgb(255, 255, 255); paint-order: fill; stroke-width: 5px;"/>
  <rect x="17.231" y="1190.09" width="0.074" height="136.605" style="stroke: rgb(255, 255, 255); fill: rgb(255, 255, 255); stroke-width: 5px;" transform="matrix(1, 0, -0.001882, 1, 235.315277, -1130.261353)"/>
  <rect x="17.231" y="1190.09" width="0.074" height="136.605" style="stroke: rgb(255, 255, 255); fill: rgb(255, 255, 255); stroke-width: 5px;" transform="matrix(1, 0, -0.001882, 1, 236.350266, -913.427917)"/>
</svg>