<svg width="49" height="35" viewBox="0 0 49 35" fill="none" xmlns="http://www.w3.org/2000/svg">
<path d="M0.422791 3.68871C0.422791 2.95611 0.739869 2.25352 1.30427 1.7355C1.86868 1.21747 2.63417 0.926453 3.43236 0.926453H10.6112C13.9619 0.926453 17.1319 2.326 19.2266 4.72732L25.2417 11.6293C26.0878 12.5994 27.1607 13.3825 28.3812 13.9206C29.6016 14.4587 30.9382 14.7379 32.2922 14.7377H39.4549L33.1469 7.21334C32.6605 6.63215 32.4456 5.89743 32.5495 5.17082C32.6533 4.44421 33.0674 3.78522 33.7006 3.33882C34.3339 2.89243 35.1344 2.69519 35.926 2.79051C36.7177 2.88583 37.4357 3.26589 37.9221 3.84708L47.954 15.8168C48.3581 16.2995 48.5772 16.8912 48.5772 17.5C48.5772 18.1087 48.3581 18.7004 47.954 19.1831L37.9221 31.1529C37.4357 31.7341 36.7177 32.1141 35.926 32.2095C35.1344 32.3048 34.3339 32.1075 33.7006 31.6611C33.0674 31.2148 32.6533 30.5558 32.5495 29.8291C32.4456 29.1025 32.6605 28.3678 33.1469 27.7866L39.4549 20.2622H31.3612C29.8363 20.2622 28.3958 20.8994 27.4447 21.9933L21.4296 28.8915C20.0202 30.508 18.2329 31.8131 16.1998 32.71C14.1668 33.607 11.94 34.073 9.68425 34.0735H3.43236C2.63417 34.0735 1.86868 33.7825 1.30427 33.2645C0.739869 32.7464 0.422791 32.0439 0.422791 31.3113C0.422791 30.5787 0.739869 29.8761 1.30427 29.3581C1.86868 28.84 2.63417 28.549 3.43236 28.549H9.68425C12.429 28.549 15.0212 27.4073 16.7347 25.4405L22.7498 18.5386C23.0057 18.2474 23.2776 17.9684 23.5644 17.7025C22.4314 16.9592 21.4148 16.0769 20.5428 15.0802L14.5236 8.17829C14.0545 7.64026 13.4598 7.20574 12.7834 6.90678C12.1069 6.60783 11.366 6.45206 10.6152 6.45096H3.43236C2.63417 6.45096 1.86868 6.15994 1.30427 5.64192C0.739869 5.12389 0.422791 4.4213 0.422791 3.68871Z" fill="black"/>
</svg>
