<svg width="71" height="59" viewBox="0 0 71 59" fill="none" xmlns="http://www.w3.org/2000/svg">
<path d="M8.00098 35.0566L6.07129 41.708L7.99316 47.8262L14.7617 49.8789L22.2393 47.8203L23.9863 41.707L22.2324 35.0625L14.7617 33.0059L8.00098 35.0566ZM16.6377 18.4121L37.4316 36.2402L48.0596 44.6172L58 49.333L52.8066 38.7686L34.0361 22.5498L34.0273 22.542L22.377 11.998L12.7852 8.39453L16.6377 18.4121ZM48.2285 7.97363L47.2285 14.0254L48.2334 20.1309L54.8389 21.6592L62.0078 20.1182L63.5264 14.0283L62.0137 7.98145L54.8398 6.93359L48.2285 7.97363ZM70.5 49.8389L70.3633 49.9834L62.4775 58.3428L62.3301 58.5H43.6533L43.5527 58.4531L35.6572 54.7539L28.2158 58.4482L28.1104 58.5H8.66992L8.52246 58.3428L0.636719 49.9834L0.5 49.8389V9.16113L0.636719 9.0166L8.52246 0.657227L8.66992 0.5H26.5635L26.6445 0.529297L35.6406 3.72266L43.5781 0.536133L43.668 0.5H62.3301L62.4775 0.657227L70.3633 9.0166L70.5 9.16113V49.8389Z" fill="black" stroke="white"/>
</svg>
